<?xml version="1.0" encoding="UTF-8"?>
<svg width="274px" height="84px" viewBox="0 0 274 84" version="1.1" xmlns="http://www.w3.org/2000/svg" xmlns:xlink="http://www.w3.org/1999/xlink">
    <title>GLIESEREUM</title>
    <desc>GLIESEREUM</desc>
    <defs></defs>
    <g id="logo" stroke="none" stroke-width="1" fill="none" fill-rule="evenodd">
        <path d="M100,53.9309392 C100,52.6243029 100.225611,51.4696183 100.676839,50.4668508 C101.128067,49.4640834 101.722175,48.636053 102.459181,47.9827348 C103.196187,47.3294166 104.023426,46.835637 104.940923,46.5013812 C105.858421,46.1671254 106.783424,46 107.715962,46 C108.648501,46 109.573504,46.1671254 110.491002,46.5013812 C111.408499,46.835637 112.235738,47.3294166 112.972744,47.9827348 C113.70975,48.636053 114.303858,49.4640834 114.755086,50.4668508 C115.206314,51.4696183 115.431925,52.6243029 115.431925,53.9309392 L115.431925,55.5718232 L110.829421,55.5718232 L110.829421,53.9309392 C110.829421,52.8066242 110.521086,51.9785938 109.904408,51.4468232 C109.287729,50.9150526 108.558255,50.6491713 107.715962,50.6491713 C106.87367,50.6491713 106.144195,50.9150526 105.527517,51.4468232 C104.910839,51.9785938 104.602504,52.8066242 104.602504,53.9309392 L104.602504,71.0690608 C104.602504,72.1933758 104.910839,73.0214062 105.527517,73.5531768 C106.144195,74.0849474 106.87367,74.3508287 107.715962,74.3508287 C108.558255,74.3508287 109.287729,74.0849474 109.904408,73.5531768 C110.521086,73.0214062 110.829421,72.1933758 110.829421,71.0690608 L110.829421,64.961326 L107.174491,64.961326 L107.174491,60.859116 L115.431925,60.859116 L115.431925,71.0690608 C115.431925,72.406084 115.206314,73.5683652 114.755086,74.5559392 C114.303858,75.5435132 113.70975,76.363947 112.972744,77.0172652 C112.235738,77.6705834 111.408499,78.164363 110.491002,78.4986188 C109.573504,78.8328746 108.648501,79 107.715962,79 C106.783424,79 105.858421,78.8328746 104.940923,78.4986188 C104.023426,78.164363 103.196187,77.6705834 102.459181,77.0172652 C101.722175,76.363947 101.128067,75.5435132 100.676839,74.5559392 C100.225611,73.5683652 100,72.406084 100,71.0690608 L100,53.9309392 Z M119.492958,46.2734807 L124.095462,46.2734807 L124.095462,74.0773481 L133.210224,74.0773481 L133.210224,78.7265193 L119.492958,78.7265193 L119.492958,46.2734807 Z M136.323683,46.2734807 L140.926187,46.2734807 L140.926187,78.7265193 L136.323683,78.7265193 L136.323683,46.2734807 Z M145.393323,46.2734807 L159.110589,46.2734807 L159.110589,50.6491713 L149.995827,50.6491713 L149.995827,60.1754144 L157.937402,60.1754144 L157.937402,64.551105 L149.995827,64.551105 L149.995827,74.0773481 L159.110589,74.0773481 L159.110589,78.7265193 L145.393323,78.7265193 L145.393323,46.2734807 Z M176.979134,55.6174033 L172.37663,55.6174033 L172.37663,54.5690608 C172.37663,53.5055195 172.128458,52.5863298 171.632107,51.8114641 C171.135757,51.0365983 170.300997,50.6491713 169.127804,50.6491713 C168.496084,50.6491713 167.97718,50.770717 167.571075,51.0138122 C167.164969,51.2569073 166.849114,51.5683683 166.6235,51.9482044 C166.397886,52.3280406 166.239959,52.7686439 166.149713,53.2700276 C166.059467,53.7714113 166.014345,54.2955774 166.014345,54.8425414 C166.014345,55.4806662 166.036906,56.0200254 166.082029,56.4606354 C166.127152,56.9012453 166.239957,57.2810758 166.420449,57.6001381 C166.60094,57.9192005 166.864152,58.200275 167.210094,58.4433702 C167.556035,58.6864653 168.029818,58.9295568 168.631455,59.1726519 L172.151017,60.5856354 C173.173801,60.980665 174.00104,61.4440581 174.63276,61.9758287 C175.264479,62.5075993 175.753302,63.1305213 176.099244,63.8446133 C176.445185,64.5587052 176.678316,65.379139 176.798644,66.3059392 C176.918971,67.2327394 176.979134,68.2886681 176.979134,69.4737569 C176.979134,70.8411671 176.843768,72.1098008 176.573031,73.2796961 C176.302294,74.4495915 175.858593,75.4523439 175.241914,76.2879834 C174.625236,77.123623 173.805517,77.784528 172.782733,78.2707182 C171.75995,78.7569085 170.511571,79 169.037559,79 C167.924529,79 166.88672,78.8024882 165.9241,78.4074586 C164.96148,78.012429 164.134241,77.4730697 163.442358,76.7893646 C162.750475,76.1056596 162.201489,75.2928224 161.795383,74.3508287 C161.389278,73.4088351 161.186228,72.3908894 161.186228,71.2969613 L161.186228,69.5649171 L165.788732,69.5649171 L165.788732,71.0234807 C165.788732,71.8743136 166.036904,72.6415712 166.533255,73.3252762 C167.029606,74.0089813 167.864366,74.3508287 169.037559,74.3508287 C169.819687,74.3508287 170.428836,74.2368796 170.865023,74.0089779 C171.301211,73.7810762 171.632106,73.4620186 171.85772,73.0517956 C172.083334,72.6415725 172.226221,72.1325997 172.286385,71.5248619 C172.346549,70.917124 172.37663,70.2486224 172.37663,69.519337 C172.37663,68.668504 172.346549,67.969616 172.286385,67.4226519 C172.226221,66.8756879 172.098375,66.4350845 171.902843,66.1008287 C171.707311,65.7665729 171.436578,65.493095 171.090636,65.2803867 C170.744695,65.0676785 170.285953,64.8397802 169.714397,64.5966851 L166.420449,63.2292818 C164.435045,62.4088357 163.103942,61.3225206 162.4271,59.9703039 C161.750257,58.6180872 161.411841,56.9240433 161.411841,54.8881215 C161.411841,53.6726459 161.577289,52.5179613 161.90819,51.4240331 C162.239091,50.330105 162.727914,49.3881255 163.374674,48.5980663 C164.021434,47.8080071 164.841153,47.1774885 165.833855,46.7064917 C166.826557,46.2354949 167.984692,46 169.308294,46 C170.451405,46 171.496735,46.2127051 172.444314,46.6381215 C173.391893,47.063538 174.204092,47.6256871 174.880934,48.3245856 C175.557776,49.0234842 176.076681,49.8059349 176.437663,50.6719613 C176.798646,51.5379878 176.979134,52.426791 176.979134,53.3383978 L176.979134,55.6174033 Z M180.408451,46.2734807 L194.125717,46.2734807 L194.125717,50.6491713 L185.010955,50.6491713 L185.010955,60.1754144 L192.95253,60.1754144 L192.95253,64.551105 L185.010955,64.551105 L185.010955,74.0773481 L194.125717,74.0773481 L194.125717,78.7265193 L180.408451,78.7265193 L180.408451,46.2734807 Z M201.706312,60.7679558 L204.323422,60.7679558 C205.135633,60.7679558 205.782383,60.6540067 206.263693,60.426105 C206.745003,60.1982033 207.113501,59.8715491 207.369197,59.4461326 C207.624893,59.0207161 207.797861,58.4965501 207.888106,57.8736188 C207.978352,57.2506875 208.023474,56.5290096 208.023474,55.7085635 C208.023474,54.8881174 207.978352,54.1664396 207.888106,53.5435083 C207.797861,52.920577 207.609852,52.3888144 207.324074,51.9482044 C207.038296,51.5075945 206.639717,51.1809403 206.128326,50.968232 C205.616934,50.7555238 204.940102,50.6491713 204.097809,50.6491713 L201.706312,50.6491713 L201.706312,60.7679558 Z M197.103808,46.2734807 L204.503912,46.2734807 C209.91865,46.2734807 212.625978,49.4488633 212.625978,55.7997238 C212.625978,57.6837111 212.332684,59.3017888 211.746088,60.6540055 C211.159491,62.0062222 210.129202,63.0925373 208.65519,63.9129834 L213.618675,78.7265193 L208.745436,78.7265193 L204.45879,64.8701657 L201.706312,64.8701657 L201.706312,78.7265193 L197.103808,78.7265193 L197.103808,46.2734807 Z M216.32603,46.2734807 L230.043297,46.2734807 L230.043297,50.6491713 L220.928534,50.6491713 L220.928534,60.1754144 L228.87011,60.1754144 L228.87011,64.551105 L220.928534,64.551105 L220.928534,74.0773481 L230.043297,74.0773481 L230.043297,78.7265193 L216.32603,78.7265193 L216.32603,46.2734807 Z M247.911841,71.4337017 C247.911841,72.4972429 247.716312,73.4848021 247.325248,74.3964088 C246.934183,75.3080156 246.400238,76.1056596 245.723396,76.7893646 C245.046554,77.4730697 244.256916,78.012429 243.35446,78.4074586 C242.452004,78.8024882 241.489398,79 240.466615,79 C239.443831,79 238.481225,78.8024882 237.578769,78.4074586 C236.676313,78.012429 235.886675,77.4730697 235.209833,76.7893646 C234.532991,76.1056596 233.999046,75.3080156 233.607981,74.3964088 C233.216917,73.4848021 233.021388,72.4972429 233.021388,71.4337017 L233.021388,46.2734807 L237.623891,46.2734807 L237.623891,70.9779006 C237.623891,72.1326025 237.894624,72.9834227 238.436098,73.5303867 C238.977572,74.0773508 239.654404,74.3508287 240.466615,74.3508287 C241.278825,74.3508287 241.955657,74.0773508 242.497131,73.5303867 C243.038605,72.9834227 243.309338,72.1326025 243.309338,70.9779006 L243.309338,46.2734807 L247.911841,46.2734807 L247.911841,71.4337017 Z M252.24361,46.2734807 L256.665623,46.2734807 L262.576682,63.4571823 L262.666927,63.4571823 L268.532864,46.2734807 L273,46.2734807 L273,78.7265193 L268.397496,78.7265193 L268.397496,58.9903315 L268.307251,58.9903315 L263.74987,72.9378453 L261.448618,72.9378453 L256.936359,58.9903315 L256.846114,58.9903315 L256.846114,78.7265193 L252.24361,78.7265193 L252.24361,46.2734807 Z" id="gliesereum-copy-2" fill="#000000"></path>
        <g id="Group" transform="translate(41.500000, 41.500000) scale(1, -1) translate(-41.500000, -41.500000) " fill="#000000">
            <path d="M11.758003,67.1762023 C-1.58817662,51.7401685 -0.940576191,28.3747162 13.71707,13.71707 C28.3720995,-0.937959487 51.7395363,-1.58023497 67.1756417,11.7585637 L11.758003,67.1762023 Z M63.0931977,15.8410077 C49.9152912,4.78181126 30.1763671,5.38936215 17.7828646,17.7828646 C5.37129827,30.194431 4.72688539,49.919667 15.8364337,63.0977717 L63.0931977,15.8410077 Z M71.2425863,15.8232083 C84.596556,31.2591644 83.9433372,54.6225228 69.28293,69.28293 C54.6225228,83.9433372 31.2591644,84.596556 15.8232083,71.2425863 L4.90784828,82.1579464 C3.78511009,83.2806845 1.96479183,83.2806845 0.84205364,82.1579464 C-0.280684547,81.0352082 -0.280684547,79.2148899 0.84205364,78.0921517 L78.0921517,0.84205364 C79.2148899,-0.280684547 81.0352082,-0.280684547 82.1579464,0.84205364 C83.2806845,1.96479183 83.2806845,3.78511009 82.1579464,4.90784828 L71.2425863,15.8232083 Z" id="Combined-Shape-Copy-6" transform="translate(41.500000, 41.500000) scale(1, -1) translate(-41.500000, -41.500000) "></path>
        </g>
    </g>
</svg>