<?xml version="1.0" encoding="UTF-8"?>
<svg width="512px" height="706px" viewBox="0 0 512 706" version="1.1" xmlns="http://www.w3.org/2000/svg" xmlns:xlink="http://www.w3.org/1999/xlink">
    <!-- Generator: Sketch 52.6 (67491) - http://www.bohemiancoding.com/sketch -->
    <title>Group</title>
    <desc>Created with Sketch.</desc>
    <defs>
        <path d="M83.44573,627.73339 C84.2130738,628.841776 84.4901661,630.035404 84.277015,631.31431 C84.0638639,632.593216 83.4457351,633.616326 82.42261,634.38367 C81.5700057,634.980493 80.6321551,635.2789 79.60903,635.2789 C77.9038215,635.2789 76.6249343,634.639456 75.77233,633.36055 L42.13726,587.44804 C41.3699162,586.339654 41.0715091,585.146026 41.24203,583.86712 C41.4125509,582.588214 42.0519945,581.565104 43.16038,580.79776 C44.1835051,579.945156 45.3558184,579.625434 46.677355,579.838585 C47.9988916,580.051736 49.0433162,580.712494 49.81066,581.82088 L83.44573,627.73339 Z M29.73193,635.2789 C28.4530236,635.2789 27.3446547,634.831289 26.40679,633.936055 C25.4689253,633.040821 25,631.911137 25,630.54697 L25,538.59406 C25,537.229893 25.4689253,536.100209 26.40679,535.204975 C27.3446547,534.309741 28.4530236,533.86213 29.73193,533.86213 C31.0960968,533.86213 32.2257805,534.309741 33.121015,535.204975 C34.0162495,536.100209 34.46386,537.229893 34.46386,538.59406 L34.46386,573.76381 L76.41178,535.14103 C77.3496447,534.203165 78.4580136,533.77687 79.73692,533.86213 C81.0158264,533.94739 82.1241953,534.458945 83.06206,535.39681 C83.9999247,536.334675 84.4262204,537.443044 84.34096,538.72195 C84.2556996,540.000856 83.7441447,541.109225 82.80628,542.04709 L34.46386,586.6807 L34.46386,630.54697 C34.46386,631.911137 34.0162495,633.040821 33.121015,633.936055 C32.2257805,634.831289 31.0960968,635.2789 29.73193,635.2789 Z M94.57216,568.39243 C94.57216,563.532586 95.467381,558.949907 97.25785,554.644255 C99.048319,550.338603 101.648723,546.437997 105.05914,542.94232 C108.554817,539.531903 112.476738,536.931499 116.82502,535.14103 C121.173302,533.350561 125.777296,532.45534 130.63714,532.45534 C135.496984,532.45534 140.079663,533.350561 144.385315,535.14103 C148.690967,536.931499 152.591573,539.531903 156.08725,542.94232 C159.497667,546.437997 162.098071,550.338603 163.88854,554.644255 C165.679009,558.949907 166.57423,563.532586 166.57423,568.39243 L166.57423,629.26807 C166.57423,630.546976 166.126619,631.655345 165.231385,632.59321 C164.336151,633.531075 163.206467,634 161.8423,634 C160.478133,634 159.348449,633.531075 158.453215,632.59321 C157.557981,631.655345 157.11037,630.546976 157.11037,629.26807 L157.11037,568.39243 C157.11037,564.726232 156.406982,561.294551 155.000185,558.097285 C153.593388,554.900019 151.696372,552.107782 149.30908,549.72049 C146.921788,547.333198 144.129551,545.457497 140.932285,544.09333 C137.735019,542.729163 134.303338,542.04709 130.63714,542.04709 C126.970942,542.04709 123.517946,542.729163 120.27805,544.09333 C117.038154,545.457497 114.224602,547.333198 111.83731,549.72049 C109.450018,552.107782 107.553002,554.900019 106.146205,558.097285 C104.739408,561.294551 104.03602,564.726232 104.03602,568.39243 C104.03602,568.47769 104.057335,568.541635 104.099965,568.584265 C104.142595,568.626895 104.16391,568.733469 104.16391,568.90399 L104.16391,629.26807 C104.16391,630.546976 103.694985,631.655345 102.75712,632.59321 C101.819255,633.531075 100.668257,634 99.30409,634 C98.0251836,634 96.9168147,633.531075 95.97895,632.59321 C95.0410853,631.655345 94.57216,630.546976 94.57216,629.26807 L94.57216,568.39243 Z M125.77732,598.83025 C125.77732,597.551344 126.246245,596.442975 127.18411,595.50511 C128.121975,594.567245 129.272973,594.09832 130.63714,594.09832 C131.916046,594.09832 133.024415,594.567245 133.96228,595.50511 C134.900145,596.442975 135.36907,597.551344 135.36907,598.83025 L135.36907,629.26807 C135.36907,630.546976 134.900145,631.655345 133.96228,632.59321 C133.024415,633.531075 131.916046,634 130.63714,634 C129.272973,634 128.121975,633.531075 127.18411,632.59321 C126.246245,631.655345 125.77732,630.546976 125.77732,629.26807 L125.77732,598.83025 Z M176.80543,569.67133 C176.80543,564.811486 177.700651,560.228807 179.49112,555.923155 C181.281589,551.617503 183.881993,547.759527 187.29241,544.34911 C190.702827,540.938693 194.582118,538.338289 198.9304,536.54782 C203.278682,534.757351 207.882676,533.86213 212.74252,533.86213 C217.602364,533.86213 222.206358,534.757351 226.55464,536.54782 C230.902922,538.338289 234.782213,540.938693 238.19263,544.34911 C241.603047,547.759527 244.224766,551.617503 246.057865,555.923155 C247.890964,560.228807 248.8075,564.811486 248.8075,569.67133 L248.8075,569.79922 C248.8075,574.659064 247.890964,579.263058 246.057865,583.61134 C244.224766,587.959622 241.603047,591.838913 238.19263,595.24933 C233.929609,599.512351 228.941949,602.496421 223.2295,604.20163 L247.27282,626.96605 C248.210685,627.903915 248.700925,629.033598 248.743555,630.355135 C248.786185,631.676672 248.338575,632.806355 247.40071,633.74422 C246.462845,634.767345 245.311847,635.2789 243.94768,635.2789 C242.754034,635.2789 241.688295,634.809975 240.75043,633.87211 L209.54527,604.45741 C208.863187,603.775327 208.415576,602.965365 208.202425,602.0275 C207.989274,601.089635 208.053218,600.151785 208.39426,599.21392 C209.246864,597.25293 210.738899,596.27245 212.87041,596.27245 C216.536608,596.27245 219.968289,595.569062 223.165555,594.162265 C226.362821,592.755468 229.155058,590.858452 231.54235,588.47116 C233.929642,586.083868 235.805343,583.291631 237.16951,580.094365 C238.533677,576.897099 239.21575,573.465418 239.21575,569.79922 L239.21575,569.67133 C239.21575,566.090392 238.512362,562.701341 237.105565,559.504075 C235.698768,556.306809 233.801752,553.514572 231.41446,551.12728 C229.027168,548.739988 226.234931,546.842972 223.037665,545.436175 C219.840399,544.029378 216.408718,543.32599 212.74252,543.32599 C209.076322,543.32599 205.644641,544.008063 202.447375,545.37223 C199.250109,546.736397 196.457872,548.612098 194.07058,550.99939 C191.683288,553.386682 189.786272,556.178919 188.379475,559.376185 C186.972678,562.573451 186.26929,566.005132 186.26929,569.67133 C186.35455,569.75659 186.39718,569.969738 186.39718,570.31078 L186.39718,630.41908 C186.39718,631.783247 185.928255,632.934245 184.99039,633.87211 C184.052525,634.809975 182.901527,635.2789 181.53736,635.2789 C180.258454,635.2789 179.150085,634.809975 178.21222,633.87211 C177.274355,632.934245 176.80543,631.783247 176.80543,630.41908 L176.80543,569.67133 Z M259.0387,569.79922 C259.0387,564.939376 259.933921,560.335382 261.72439,555.9871 C263.514859,551.638818 266.115263,547.759527 269.52568,544.34911 C273.021357,540.938693 276.921963,538.338289 281.227615,536.54782 C285.533267,534.757351 290.115946,533.86213 294.97579,533.86213 C299.835634,533.86213 304.439628,534.757351 308.78791,536.54782 C313.136192,538.338289 317.058113,540.938693 320.55379,544.34911 C321.662176,545.542756 322.7066,546.757699 323.687095,547.993975 C324.66759,549.230251 325.541496,550.530453 326.30884,551.89462 C327.928788,549.081026 329.847119,546.565881 332.06389,544.34911 C335.474307,540.938693 339.353598,538.338289 343.70188,536.54782 C348.050162,534.757351 352.654156,533.86213 357.514,533.86213 C362.373844,533.86213 366.977838,534.757351 371.32612,536.54782 C375.674402,538.338289 379.553693,540.938693 382.96411,544.34911 C386.459787,547.759527 389.102821,551.638818 390.89329,555.9871 C392.683759,560.335382 393.57898,564.939376 393.57898,569.79922 L393.57898,630.54697 C393.57898,631.911137 393.110055,633.040821 392.17219,633.936055 C391.234325,634.831289 390.125956,635.2789 388.84705,635.2789 C387.482883,635.2789 386.331885,634.831289 385.39402,633.936055 C384.456155,633.040821 383.98723,631.911137 383.98723,630.54697 L383.98723,569.79922 C383.98723,566.133022 383.305157,562.701341 381.94099,559.504075 C380.576823,556.306809 378.701122,553.514572 376.31383,551.12728 C373.926538,548.739988 371.112986,546.842972 367.87309,545.436175 C364.633194,544.029378 361.180198,543.32599 357.514,543.32599 C353.847802,543.32599 350.416121,544.008063 347.218855,545.37223 C344.021589,546.736397 341.229352,548.612098 338.84206,550.99939 C336.454768,553.386682 334.557752,556.178919 333.150955,559.376185 C331.744158,562.573451 331.04077,566.005132 331.04077,569.67133 L331.04077,630.54697 C331.04077,631.911137 330.593159,633.040821 329.697925,633.936055 C328.802691,634.831289 327.673007,635.2789 326.30884,635.2789 C324.944673,635.2789 323.814989,634.831289 322.919755,633.936055 C322.024521,633.040821 321.57691,631.911137 321.57691,630.54697 L321.57691,569.79922 C321.57691,566.133022 320.873522,562.701341 319.466725,559.504075 C318.059928,556.306809 316.162912,553.514572 313.77562,551.12728 C311.388328,548.739988 308.574776,546.842972 305.33488,545.436175 C302.094984,544.029378 298.641988,543.32599 294.97579,543.32599 C291.309592,543.32599 287.877911,544.008063 284.680645,545.37223 C281.483379,546.736397 278.691142,548.612098 276.30385,550.99939 C273.916558,553.386682 272.019542,556.178919 270.612745,559.376185 C269.205948,562.573451 268.50256,566.005132 268.50256,569.67133 C268.50256,569.927111 268.54519,570.09763 268.63045,570.18289 L268.63045,630.54697 C268.63045,631.911137 268.161525,633.040821 267.22366,633.936055 C266.285795,634.831289 265.134797,635.2789 263.77063,635.2789 C262.491724,635.2789 261.383355,634.831289 260.44549,633.936055 C259.507625,633.040821 259.0387,631.911137 259.0387,630.54697 L259.0387,569.79922 Z M403.81018,568.39243 C403.81018,563.532586 404.705401,558.949907 406.49587,554.644255 C408.286339,550.338603 410.886743,546.437997 414.29716,542.94232 C417.792837,539.531903 421.714758,536.931499 426.06304,535.14103 C430.411322,533.350561 435.015316,532.45534 439.87516,532.45534 C444.735004,532.45534 449.317683,533.350561 453.623335,535.14103 C457.928987,536.931499 461.829593,539.531903 465.32527,542.94232 C468.735687,546.437997 471.336091,550.338603 473.12656,554.644255 C474.917029,558.949907 475.81225,563.532586 475.81225,568.39243 L475.81225,629.26807 C475.81225,630.546976 475.364639,631.655345 474.469405,632.59321 C473.574171,633.531075 472.444487,634 471.08032,634 C469.716153,634 468.586469,633.531075 467.691235,632.59321 C466.796001,631.655345 466.34839,630.546976 466.34839,629.26807 L466.34839,568.39243 C466.34839,564.726232 465.645002,561.294551 464.238205,558.097285 C462.831408,554.900019 460.934392,552.107782 458.5471,549.72049 C456.159808,547.333198 453.367571,545.457497 450.170305,544.09333 C446.973039,542.729163 443.541358,542.04709 439.87516,542.04709 C436.208962,542.04709 432.755966,542.729163 429.51607,544.09333 C426.276174,545.457497 423.462622,547.333198 421.07533,549.72049 C418.688038,552.107782 416.791022,554.900019 415.384225,558.097285 C413.977428,561.294551 413.27404,564.726232 413.27404,568.39243 C413.27404,568.47769 413.295355,568.541635 413.337985,568.584265 C413.380615,568.626895 413.40193,568.733469 413.40193,568.90399 L413.40193,629.26807 C413.40193,630.546976 412.933005,631.655345 411.99514,632.59321 C411.057275,633.531075 409.906277,634 408.54211,634 C407.263204,634 406.154835,633.531075 405.21697,632.59321 C404.279105,631.655345 403.81018,630.546976 403.81018,629.26807 L403.81018,568.39243 Z M435.01534,598.83025 C435.01534,597.551344 435.484265,596.442975 436.42213,595.50511 C437.359995,594.567245 438.510993,594.09832 439.87516,594.09832 C441.154066,594.09832 442.262435,594.567245 443.2003,595.50511 C444.138165,596.442975 444.60709,597.551344 444.60709,598.83025 L444.60709,629.26807 C444.60709,630.546976 444.138165,631.655345 443.2003,632.59321 C442.262435,633.531075 441.154066,634 439.87516,634 C438.510993,634 437.359995,633.531075 436.42213,632.59321 C435.484265,631.655345 435.01534,630.546976 435.01534,629.26807 L435.01534,598.83025 Z" id="path-1"></path>
        <filter x="-0.7%" y="-2.9%" width="102.4%" height="111.7%" filterUnits="objectBoundingBox" id="filter-2">
            <feOffset dx="5" dy="6" in="SourceAlpha" result="shadowOffsetOuter1"></feOffset>
            <feColorMatrix values="0 0 0 0 0.961710989   0 0 0 0 0.65036732   0 0 0 0 0.138542295  0 0 0 1 0" type="matrix" in="shadowOffsetOuter1"></feColorMatrix>
        </filter>
        <path d="M130,685.2897 L130,664.43277 C130,664.185209 130.02063,664.02017 130.06189,663.93765 C130.10315,662.493543 130.422912,661.131976 131.021185,659.85291 C131.619458,658.573844 132.413705,657.47015 133.40395,656.541795 C134.394195,655.61344 135.539149,654.881083 136.838845,654.3447 C138.138541,653.808317 139.510423,653.54013 140.95453,653.54013 L141.01642,653.54013 C142.501787,653.54013 143.904613,653.828947 145.22494,654.40659 C146.545267,654.984233 147.700535,655.768165 148.69078,656.75841 C149.681025,657.748655 150.464957,658.903923 151.0426,660.22425 C151.620243,661.544577 151.90906,662.947403 151.90906,664.43277 C151.90906,665.711836 151.682132,666.970254 151.22827,668.20806 C154.487826,668.950744 157.334738,670.518608 159.76909,672.9117 C161.419498,674.562108 162.677916,676.439419 163.54438,678.54369 C164.410844,680.647961 164.84407,682.875978 164.84407,685.22781 L164.84407,685.2897 C164.84407,687.641532 164.410844,689.859235 163.54438,691.942875 C162.677916,694.026515 161.419498,695.893512 159.76909,697.54392 C158.077422,699.194328 156.189795,700.463061 154.106155,701.350155 C152.022515,702.237249 149.804812,702.68079 147.45298,702.68079 C145.101148,702.68079 142.873131,702.237249 140.76886,701.350155 C138.664589,700.463061 136.766648,699.194328 135.07498,697.54392 C133.424572,695.893512 132.166154,694.026515 131.29969,691.942875 C130.433226,689.859235 130,687.641532 130,685.2897 Z M140.95453,658.11999 C140.088066,658.11999 139.273189,658.285028 138.509875,658.61511 C137.746561,658.945192 137.076093,659.399047 136.49845,659.97669 C135.920807,660.554333 135.466952,661.224801 135.13687,661.988115 C134.806788,662.751429 134.64175,663.566306 134.64175,664.43277 C134.64175,664.639071 134.62112,664.78348 134.57986,664.866 L134.64175,684.98025 L134.64175,685.04214 C134.64175,685.0834 134.631435,685.12466 134.610805,685.16592 C134.590175,685.20718 134.57986,685.24844 134.57986,685.2897 C134.57986,687.063889 134.920252,688.724587 135.601045,690.271845 C136.281838,691.819103 137.199864,693.170354 138.35515,694.32564 C139.510436,695.480926 140.872002,696.388637 142.43989,697.0488 C144.007778,697.708963 145.678791,698.03904 147.45298,698.03904 C149.227169,698.03904 150.887867,697.708963 152.435125,697.0488 C153.982383,696.388637 155.333634,695.480926 156.48892,694.32564 C157.644206,693.170354 158.562232,691.819103 159.243025,690.271845 C159.923818,688.724587 160.26421,687.063889 160.26421,685.2897 L160.26421,685.22781 C160.26421,683.494881 159.934133,681.865128 159.27397,680.3385 C158.613807,678.811872 157.726726,677.470936 156.6127,676.31565 C155.498674,675.160364 154.178368,674.232024 152.65174,673.5306 C151.125112,672.829176 149.495359,672.45784 147.76243,672.41658 C147.67991,672.41658 147.628335,672.426895 147.607705,672.447525 C147.587075,672.468155 147.5355,672.47847 147.45298,672.47847 C146.875337,672.47847 146.380222,672.272172 145.96762,671.85957 C145.348717,671.364448 145.08053,670.704294 145.16305,669.87909 L145.16305,669.8172 C145.24557,669.280817 145.472498,668.826962 145.84384,668.45562 C146.792825,667.300334 147.26731,665.959398 147.26731,664.43277 C147.26731,663.566306 147.102272,662.751429 146.77219,661.988115 C146.442108,661.224801 145.998568,660.554333 145.441555,659.97669 C144.884542,659.399047 144.224389,658.945192 143.461075,658.61511 C142.697761,658.285028 141.882884,658.11999 141.01642,658.11999 L140.95453,658.11999 Z M185.88667,702.68079 C183.741139,702.68079 181.688475,702.278509 179.728615,701.473935 C177.768755,700.669361 176.025538,699.503778 174.49891,697.97715 C172.972282,696.450522 171.806699,694.71762 171.002125,692.77839 C170.197551,690.83916 169.79527,688.776181 169.79527,686.58939 L169.79527,670.25043 C169.79527,669.631527 170.011883,669.105467 170.445115,668.672235 C170.878347,668.239003 171.404407,668.02239 172.02331,668.02239 C172.642213,668.02239 173.168273,668.239003 173.601505,668.672235 C174.034737,669.105467 174.25135,669.631527 174.25135,670.25043 L174.25135,686.58939 C174.25135,688.198538 174.550482,689.714828 175.148755,691.138305 C175.747028,692.561782 176.57222,693.79957 177.624355,694.851705 C178.67649,695.90384 179.914278,696.729032 181.337755,697.327305 C182.761232,697.925578 184.277522,698.22471 185.88667,698.22471 C187.495818,698.22471 189.001793,697.925578 190.40464,697.327305 C191.807487,696.729032 193.03496,695.90384 194.087095,694.851705 C195.13923,693.79957 195.974737,692.572097 196.59364,691.16925 C197.212543,689.766403 197.52199,688.260428 197.52199,686.65128 L197.52199,670.25043 C197.52199,669.631527 197.738603,669.105467 198.171835,668.672235 C198.605067,668.239003 199.131127,668.02239 199.75003,668.02239 C200.368933,668.02239 200.894993,668.239003 201.328225,668.672235 C201.761457,669.105467 201.97807,669.631527 201.97807,670.25043 L201.97807,686.58939 C201.97807,688.776181 201.575789,690.83916 200.771215,692.77839 C199.966641,694.71762 198.801058,696.450522 197.27443,697.97715 C195.747802,699.503778 194.0149,700.669361 192.07567,701.473935 C190.13644,702.278509 188.073461,702.68079 185.88667,702.68079 Z M229.33345,680.09094 C230.571256,681.370006 231.520227,682.803777 232.18039,684.392295 C232.840553,685.980813 233.17063,687.662141 233.17063,689.43633 L233.17063,689.49822 C233.17063,693.129118 231.891583,696.223587 229.33345,698.78172 C226.734057,701.381113 223.618958,702.68079 219.98806,702.68079 C216.315902,702.68079 213.180173,701.381113 210.58078,698.78172 C208.022647,696.223587 206.7436,693.129118 206.7436,689.49822 L206.7436,689.18877 C206.78486,688.611127 207.022103,688.105697 207.455335,687.672465 C207.888567,687.239233 208.393997,687.02262 208.97164,687.02262 C209.590543,687.02262 210.116603,687.249548 210.549835,687.70341 C210.983067,688.157272 211.19968,688.673017 211.19968,689.25066 L211.19968,689.49822 C211.19968,690.694766 211.426608,691.829405 211.88047,692.90217 C212.334332,693.974935 212.963541,694.903276 213.768115,695.68722 C214.572689,696.471164 215.511345,697.090058 216.58411,697.54392 C217.656875,697.997782 218.791514,698.22471 219.98806,698.22471 C221.184606,698.22471 222.319245,697.997782 223.39201,697.54392 C224.464775,697.090058 225.393116,696.460849 226.17706,695.656275 C226.961004,694.851701 227.579898,693.92336 228.03376,692.871225 C228.487622,691.81909 228.71455,690.694766 228.71455,689.49822 L228.71455,689.43633 C228.71455,688.239784 228.487622,687.105145 228.03376,686.03238 C227.579898,684.959615 226.961004,684.031274 226.17706,683.24733 C225.393116,682.463386 224.464775,681.844492 223.39201,681.39063 C222.319245,680.936768 221.184606,680.70984 219.98806,680.70984 L219.86428,680.70984 C217.718749,680.66858 215.882698,680.008426 214.35607,678.72936 C212.994483,677.615334 212.066142,676.212508 211.57102,674.52084 C211.117158,672.787911 211.158417,671.137528 211.6948,669.56964 C211.901101,668.991997 212.272437,668.558771 212.80882,668.26995 C213.345203,667.981129 213.902207,667.939869 214.47985,668.14617 C215.057493,668.352471 215.490719,668.723807 215.77954,669.26019 C216.068361,669.796573 216.109621,670.353577 215.90332,670.93122 C215.655759,671.756424 215.645444,672.560986 215.872375,673.34493 C216.099306,674.128874 216.542847,674.789027 217.20301,675.32541 C217.863173,675.861793 218.791514,676.17124 219.98806,676.25376 L220.04995,676.25376 C221.824139,676.25376 223.505467,676.583837 225.093985,677.244 C226.682503,677.904163 228.095644,678.853134 229.33345,680.09094 Z M237.31726,659.85291 C237.31726,659.234007 237.533873,658.707947 237.967105,658.274715 C238.400337,657.841483 238.926397,657.62487 239.5453,657.62487 C240.164203,657.62487 240.690263,657.841483 241.123495,658.274715 C241.556727,658.707947 241.77334,659.234007 241.77334,659.85291 L241.77334,661.7715 C241.77334,662.390403 241.556727,662.916463 241.123495,663.349695 C240.690263,663.782927 240.164203,663.99954 239.5453,663.99954 C238.926397,663.99954 238.400337,663.782927 237.967105,663.349695 C237.533873,662.916463 237.31726,662.390403 237.31726,661.7715 L237.31726,659.85291 Z M239.5453,668.02239 C240.164203,668.02239 240.690263,668.239003 241.123495,668.672235 C241.556727,669.105467 241.77334,669.631527 241.77334,670.25043 L241.77334,700.39086 C241.77334,701.009763 241.556727,701.535823 241.123495,701.969055 C240.690263,702.402287 240.164203,702.6189 239.5453,702.6189 C238.926397,702.6189 238.400337,702.402287 237.967105,701.969055 C237.533873,701.535823 237.31726,701.009763 237.31726,700.39086 L237.31726,670.25043 C237.31726,669.631527 237.533873,669.105467 237.967105,668.672235 C238.400337,668.239003 238.926397,668.02239 239.5453,668.02239 Z M273.46102,702.6189 C272.842117,702.6189 272.316057,702.402287 271.882825,701.969055 C271.449593,701.535823 271.23298,701.009763 271.23298,700.39086 L271.23298,684.0519 C271.23298,682.442752 270.923533,680.936777 270.30463,679.53393 C269.685727,678.131083 268.85022,676.90361 267.798085,675.851475 C266.74595,674.79934 265.518477,673.963833 264.11563,673.34493 C262.712783,672.726027 261.206808,672.41658 259.59766,672.41658 C257.988512,672.41658 256.482537,672.715712 255.07969,673.313985 C253.676843,673.912258 252.44937,674.73745 251.397235,675.789585 C250.3451,676.84172 249.509593,678.069193 248.89069,679.47204 C248.271787,680.874887 247.96234,682.380862 247.96234,683.99001 L247.96234,700.39086 C247.96234,701.009763 247.745727,701.535823 247.312495,701.969055 C246.879263,702.402287 246.353203,702.6189 245.7343,702.6189 C245.115397,702.6189 244.589337,702.402287 244.156105,701.969055 C243.722873,701.535823 243.50626,701.009763 243.50626,700.39086 L243.50626,684.0519 C243.50626,681.865109 243.908541,679.80213 244.713115,677.8629 C245.517689,675.92367 246.683272,674.190768 248.2099,672.66414 C249.736528,671.137512 251.479745,669.971929 253.439605,669.167355 C255.399465,668.362781 257.452129,667.9605 259.59766,667.9605 C261.784451,667.9605 263.84743,668.362781 265.78666,669.167355 C267.72589,669.971929 269.458792,671.137512 270.98542,672.66414 C272.512048,674.190768 273.677631,675.92367 274.482205,677.8629 C275.286779,679.80213 275.68906,681.865109 275.68906,684.0519 L275.68906,700.39086 C275.68906,701.009763 275.472447,701.535823 275.039215,701.969055 C274.605983,702.402287 274.079923,702.6189 273.46102,702.6189 Z M295.55575,685.16592 C295.55575,684.547017 295.772363,684.010642 296.205595,683.55678 C296.638827,683.102918 297.164887,682.87599 297.78379,682.87599 L310.40935,682.87599 C310.161789,681.390623 309.666674,680.018741 308.92399,678.760305 C308.181306,677.501869 307.26328,676.398175 306.169885,675.44919 C305.07649,674.500205 303.849017,673.747218 302.48743,673.190205 C301.125843,672.633192 299.681758,672.31343 298.15513,672.23091 L297.7219,672.23091 C295.947711,672.23091 294.287013,672.571302 292.739755,673.252095 C291.192497,673.932888 289.841246,674.861229 288.68596,676.037145 C287.530674,677.213061 286.612648,678.584942 285.931855,680.15283 C285.251062,681.720718 284.91067,683.391731 284.91067,685.16592 C284.91067,686.940109 285.251062,688.611122 285.931855,690.17901 C286.612648,691.746898 287.530674,693.108464 288.68596,694.26375 C289.841246,695.419036 291.202812,696.337062 292.7707,697.017855 C294.338588,697.698648 296.009601,698.03904 297.78379,698.03904 C298.402693,698.03904 298.928753,698.255653 299.361985,698.688885 C299.795217,699.122117 300.01183,699.648177 300.01183,700.26708 C300.01183,700.885983 299.795217,701.412043 299.361985,701.845275 C298.928753,702.278507 298.402693,702.49512 297.78379,702.49512 C295.431958,702.49512 293.214255,702.061894 291.130615,701.19543 C289.046975,700.328966 287.179978,699.070548 285.52957,697.42014 C283.879162,695.769732 282.620744,693.902735 281.75428,691.819095 C280.887816,689.735455 280.45459,687.517752 280.45459,685.16592 C280.45459,682.814088 280.887816,680.586071 281.75428,678.4818 C282.620744,676.377529 283.879162,674.500218 285.52957,672.84981 C287.138718,671.199402 288.985085,669.940984 291.068725,669.07452 C293.152365,668.208056 295.349438,667.77483 297.66001,667.77483 L297.90757,667.77483 C300.218142,667.81609 302.4049,668.269946 304.46791,669.13641 C306.53092,670.002874 308.366972,671.240662 309.97612,672.84981 C311.626528,674.500218 312.884946,676.377529 313.75141,678.4818 C314.617874,680.586071 315.0511,682.814088 315.0511,685.16592 L315.0511,685.47537 C314.96858,685.970492 314.751967,686.383088 314.401255,686.71317 C314.050543,687.043252 313.648262,687.24955 313.1944,687.33207 C313.11188,687.37333 312.988101,687.39396 312.82306,687.39396 L297.78379,687.39396 C297.164887,687.39396 296.638827,687.177347 296.205595,686.744115 C295.772363,686.310883 295.55575,685.784823 295.55575,685.16592 Z M342.59215,680.09094 C343.829956,681.370006 344.778927,682.803777 345.43909,684.392295 C346.099253,685.980813 346.42933,687.662141 346.42933,689.43633 L346.42933,689.49822 C346.42933,693.129118 345.150283,696.223587 342.59215,698.78172 C339.992757,701.381113 336.877658,702.68079 333.24676,702.68079 C329.574602,702.68079 326.438873,701.381113 323.83948,698.78172 C321.281347,696.223587 320.0023,693.129118 320.0023,689.49822 L320.0023,689.18877 C320.04356,688.611127 320.280803,688.105697 320.714035,687.672465 C321.147267,687.239233 321.652697,687.02262 322.23034,687.02262 C322.849243,687.02262 323.375303,687.249548 323.808535,687.70341 C324.241767,688.157272 324.45838,688.673017 324.45838,689.25066 L324.45838,689.49822 C324.45838,690.694766 324.685308,691.829405 325.13917,692.90217 C325.593032,693.974935 326.222241,694.903276 327.026815,695.68722 C327.831389,696.471164 328.770045,697.090058 329.84281,697.54392 C330.915575,697.997782 332.050214,698.22471 333.24676,698.22471 C334.443306,698.22471 335.577945,697.997782 336.65071,697.54392 C337.723475,697.090058 338.651816,696.460849 339.43576,695.656275 C340.219704,694.851701 340.838598,693.92336 341.29246,692.871225 C341.746322,691.81909 341.97325,690.694766 341.97325,689.49822 L341.97325,689.43633 C341.97325,688.239784 341.746322,687.105145 341.29246,686.03238 C340.838598,684.959615 340.219704,684.031274 339.43576,683.24733 C338.651816,682.463386 337.723475,681.844492 336.65071,681.39063 C335.577945,680.936768 334.443306,680.70984 333.24676,680.70984 L333.12298,680.70984 C330.977449,680.66858 329.141398,680.008426 327.61477,678.72936 C326.253183,677.615334 325.324842,676.212508 324.82972,674.52084 C324.375858,672.787911 324.417117,671.137528 324.9535,669.56964 C325.159801,668.991997 325.531137,668.558771 326.06752,668.26995 C326.603903,667.981129 327.160907,667.939869 327.73855,668.14617 C328.316193,668.352471 328.749419,668.723807 329.03824,669.26019 C329.327061,669.796573 329.368321,670.353577 329.16202,670.93122 C328.914459,671.756424 328.904144,672.560986 329.131075,673.34493 C329.358006,674.128874 329.801547,674.789027 330.46171,675.32541 C331.121873,675.861793 332.050214,676.17124 333.24676,676.25376 L333.30865,676.25376 C335.082839,676.25376 336.764167,676.583837 338.352685,677.244 C339.941203,677.904163 341.354344,678.853134 342.59215,680.09094 Z M373.16581,680.09094 C374.403616,681.370006 375.352587,682.803777 376.01275,684.392295 C376.672913,685.980813 377.00299,687.662141 377.00299,689.43633 L377.00299,689.49822 C377.00299,693.129118 375.723943,696.223587 373.16581,698.78172 C370.566417,701.381113 367.451318,702.68079 363.82042,702.68079 C360.148262,702.68079 357.012533,701.381113 354.41314,698.78172 C351.855007,696.223587 350.57596,693.129118 350.57596,689.49822 L350.57596,689.18877 C350.61722,688.611127 350.854463,688.105697 351.287695,687.672465 C351.720927,687.239233 352.226357,687.02262 352.804,687.02262 C353.422903,687.02262 353.948963,687.249548 354.382195,687.70341 C354.815427,688.157272 355.03204,688.673017 355.03204,689.25066 L355.03204,689.49822 C355.03204,690.694766 355.258968,691.829405 355.71283,692.90217 C356.166692,693.974935 356.795901,694.903276 357.600475,695.68722 C358.405049,696.471164 359.343705,697.090058 360.41647,697.54392 C361.489235,697.997782 362.623874,698.22471 363.82042,698.22471 C365.016966,698.22471 366.151605,697.997782 367.22437,697.54392 C368.297135,697.090058 369.225476,696.460849 370.00942,695.656275 C370.793364,694.851701 371.412258,693.92336 371.86612,692.871225 C372.319982,691.81909 372.54691,690.694766 372.54691,689.49822 L372.54691,689.43633 C372.54691,688.239784 372.319982,687.105145 371.86612,686.03238 C371.412258,684.959615 370.793364,684.031274 370.00942,683.24733 C369.225476,682.463386 368.297135,681.844492 367.22437,681.39063 C366.151605,680.936768 365.016966,680.70984 363.82042,680.70984 L363.69664,680.70984 C361.551109,680.66858 359.715058,680.008426 358.18843,678.72936 C356.826843,677.615334 355.898502,676.212508 355.40338,674.52084 C354.949518,672.787911 354.990777,671.137528 355.52716,669.56964 C355.733461,668.991997 356.104797,668.558771 356.64118,668.26995 C357.177563,667.981129 357.734567,667.939869 358.31221,668.14617 C358.889853,668.352471 359.323079,668.723807 359.6119,669.26019 C359.900721,669.796573 359.941981,670.353577 359.73568,670.93122 C359.488119,671.756424 359.477804,672.560986 359.704735,673.34493 C359.931666,674.128874 360.375207,674.789027 361.03537,675.32541 C361.695533,675.861793 362.623874,676.17124 363.82042,676.25376 L363.88231,676.25376 C365.656499,676.25376 367.337827,676.583837 368.926345,677.244 C370.514863,677.904163 371.928004,678.853134 373.16581,680.09094 Z" id="path-3"></path>
        <filter x="-0.6%" y="-3.1%" width="102.0%" height="112.2%" filterUnits="objectBoundingBox" id="filter-4">
            <feOffset dx="2" dy="3" in="SourceAlpha" result="shadowOffsetOuter1"></feOffset>
            <feColorMatrix values="0 0 0 0 0.961710989   0 0 0 0 0.65036732   0 0 0 0 0.138542295  0 0 0 1 0" type="matrix" in="shadowOffsetOuter1"></feColorMatrix>
        </filter>
        <radialGradient cx="50%" cy="51.7157376%" fx="50%" fy="51.7157376%" r="100%" id="radialGradient-5">
            <stop stop-color="#FBD249" offset="0%"></stop>
            <stop stop-color="#F5A623" offset="100%"></stop>
        </radialGradient>
        <path d="M256,0 C397.384896,-2.84217094e-14 512,114.615104 512,256 C512,397.384896 397.384896,512 256,512 C114.615104,512 2.84217094e-14,397.384896 0,256 C-2.84217094e-14,114.615104 114.615104,2.84217094e-14 256,0 Z M315.977435,167.100274 C312.635304,167.100274 309.315478,168.522994 306.993478,171.286059 C302.816696,176.2544 303.449435,183.678668 308.40687,187.865631 C321.30113,198.756676 330.598522,213.714653 334.58513,229.987086 C336.131174,236.298126 342.491435,240.159123 348.784783,238.608134 C355.081652,237.058323 358.932087,230.684914 357.38487,224.372697 C352.145696,202.99424 340.440609,184.147025 323.535087,169.86687 C321.332826,168.007566 318.648087,167.100274 315.977435,167.100274 Z M154.362633,163.610135 L175.228495,184.482887 C163.133448,199.639824 155.643078,217.693962 153.473826,236.931613 L124.063456,236.931613 C126.376935,210.660918 136.476269,184.959107 154.362633,163.610135 Z M244.24472,116.641459 L244.24472,146.130745 C225.014592,148.301887 206.962896,155.793557 191.810962,167.894943 L170.940411,147.015154 C191.762887,129.524035 217.154864,119.003792 244.24472,116.641459 Z M244.24472,199.62223 C238.99982,200.877292 234.071513,202.945214 229.604026,205.699314 L208.515377,184.604874 C219.055598,176.746069 231.269074,171.671862 244.24472,169.763462 L244.24472,199.62223 Z M244.24472,272.943708 C235.235874,268.572101 229.008361,259.330381 229.008361,248.662346 C229.008361,237.990792 235.235874,228.749072 244.24472,224.377465 L244.24472,272.943708 Z M244.24472,327.557711 C231.269074,325.646965 219.055598,320.573931 208.515377,312.716299 L229.604026,291.621858 C234.071513,294.375959 238.99982,296.443881 244.24472,297.698943 L244.24472,327.557711 Z M177.098742,236.931613 C179.006511,223.951682 184.080216,211.734173 191.932909,201.192818 L213.020386,222.287258 C210.268367,226.75622 208.202301,231.687327 206.947653,236.931613 L177.098742,236.931613 Z M206.947653,260.390733 C208.202301,265.635019 210.270712,270.564953 213.022731,275.035088 L191.935255,296.128355 C184.080216,285.587 179.008856,273.369491 177.098742,260.390733 L206.947653,260.390733 Z M244.24472,424.367632 L170.574569,350.671981 L191.813307,329.42623 C206.965241,341.527616 225.014592,349.019286 244.24472,351.190428 L244.24472,424.367632 Z M124.063456,260.390733 L153.473826,260.390733 C155.645424,279.627211 163.133448,297.682522 175.23084,312.838286 L154.362633,333.712211 C136.476269,312.362066 126.376935,286.660255 124.063456,260.390733 Z M267.694923,116.643805 C298.660119,119.342777 327.416196,132.696881 349.655135,154.944336 C374.678925,179.97639 388.460126,213.260189 388.460126,248.662346 C388.460126,284.06333 374.677752,317.345956 349.653962,342.378009 L267.694923,424.365286 L267.694923,116.643805 Z M145.700868,358.967126 L247.678001,460.977934 C249.876568,463.177226 252.85841,464.413522 255.96689,464.413522 C259.077715,464.413522 262.059557,463.177226 264.258124,460.977934 L366.23643,358.967126 C395.690185,329.502472 411.911501,290.329261 411.911501,248.662346 C411.911501,206.993085 395.691357,167.818701 366.23643,138.35522 C336.782675,108.891739 297.623568,92.665066 255.968063,92.665066 C214.314902,92.665066 175.154623,108.891739 145.700868,138.35522 C84.8973142,199.177679 84.8973142,298.144667 145.700868,358.967126 Z" id="path-6"></path>
        <filter x="-1.9%" y="-1.9%" width="103.7%" height="103.7%" filterUnits="objectBoundingBox" id="filter-7">
            <feOffset dx="0" dy="19" in="SourceAlpha" result="shadowOffsetInner1"></feOffset>
            <feComposite in="shadowOffsetInner1" in2="SourceAlpha" operator="arithmetic" k2="-1" k3="1" result="shadowInnerInner1"></feComposite>
            <feColorMatrix values="0 0 0 0 0.961710989   0 0 0 0 0.65036732   0 0 0 0 0.138542295  0 0 0 1 0" type="matrix" in="shadowInnerInner1"></feColorMatrix>
        </filter>
    </defs>
    <g id="Page-1" stroke="none" stroke-width="1" fill="none" fill-rule="evenodd">
        <g id="MARINEWATER-EPS-10" transform="translate(-244.000000, -180.000000)">
            <g id="Group" transform="translate(244.000000, 180.000000)">
                <g id="KARMA">
                    <use fill="black" fill-opacity="1" filter="url(#filter-2)" xlink:href="#path-1"></use>
                    <use fill="#88775B" fill-rule="evenodd" xlink:href="#path-1"></use>
                </g>
                <g id="Business">
                    <use fill="black" fill-opacity="1" filter="url(#filter-4)" xlink:href="#path-3"></use>
                    <use fill="#88775B" fill-rule="evenodd" xlink:href="#path-3"></use>
                </g>
                <g id="Shape">
                    <use fill="url(#radialGradient-5)" fill-rule="evenodd" xlink:href="#path-6"></use>
                    <use fill="black" fill-opacity="1" filter="url(#filter-7)" xlink:href="#path-6"></use>
                    <path stroke="#88775B" stroke-width="5" d="M256,2.5 C115.995816,2.5 2.5,115.995816 2.5,256 C2.5,396.004184 115.995816,509.5 256,509.5 C396.004184,509.5 509.5,396.004184 509.5,256 C509.5,115.995816 396.004184,2.5 256,2.5 Z M315.977435,164.600274 C319.31072,164.600274 322.547606,165.761327 325.148328,167.957039 C342.457361,182.578041 354.447939,201.885426 359.812991,223.777528 C361.688394,231.42865 357.02014,239.155822 349.383005,241.035505 C341.746259,242.917572 334.031459,238.233872 332.15694,230.581973 C328.296652,214.825154 319.285755,200.326847 306.793764,189.775576 C300.783122,184.699094 300.016087,175.700741 305.079566,169.677663 C307.819837,166.416875 311.805046,164.600274 315.977435,164.600274 Z M154.545637,167.329317 C138.987661,186.713828 129.490663,209.95747 126.821785,234.431613 L151.263607,234.431613 C153.69681,216.296702 160.768338,199.249529 171.897372,184.686782 L154.545637,167.329317 Z M241.74472,119.397428 C217.090126,122.064912 193.971029,131.644251 174.655969,147.196041 L192.014909,164.562663 C206.570274,153.430516 223.613783,146.356259 241.74472,143.920849 L241.74472,119.397428 Z M241.74472,197.688026 L241.74472,172.713402 C231.194625,174.674503 221.223526,178.817418 212.365591,184.920126 L230.00188,202.561258 C233.693463,200.473796 237.632869,198.836365 241.74472,197.688026 Z M241.74472,268.557499 L241.74472,228.763683 C235.432453,233.287877 231.508361,240.631446 231.508361,248.662346 C231.508361,256.690597 235.432687,264.033533 241.74472,268.557499 Z M241.74472,324.607294 L241.74472,299.633147 C237.632869,298.484808 233.693463,296.847377 230.00188,294.759915 L212.365749,312.400889 C221.222646,318.501869 231.193498,322.644435 241.74472,324.607294 Z M180.048357,234.431613 L205.013269,234.431613 C206.161416,230.318391 207.797901,226.377193 209.88331,222.685263 L192.248542,205.044672 C186.1497,213.905222 182.008443,223.879715 180.048357,234.431613 Z M205.01337,262.890733 L180.048861,262.890733 C182.011031,273.44516 186.152246,283.419076 192.250664,292.27684 L209.885685,274.636976 C207.798614,270.942317 206.16126,267.001536 205.01337,262.890733 Z M241.74472,418.330621 L241.74472,353.400323 C223.614552,350.964992 206.572895,343.891023 192.01715,332.758438 L174.109506,350.671995 L241.74472,418.330621 Z M126.821798,262.890733 C129.490701,287.363869 138.987738,310.607549 154.545736,329.993039 L171.899487,312.634533 C160.770998,298.07585 153.699456,281.028554 151.263869,262.890733 L126.821798,262.890733 Z M270.194923,119.399555 L270.194923,418.328282 L347.885904,340.610534 C372.441374,316.046955 385.960126,283.399947 385.960126,248.662346 C385.960126,213.922749 372.441965,181.274809 347.88703,156.711765 C326.770483,135.587132 299.612644,122.580718 270.194924,119.399635 Z M143.932826,360.734618 C82.1533281,298.935911 82.1533281,198.386435 143.932809,136.587745 C173.855576,106.655097 213.651926,90.165066 255.968063,90.165066 C298.285958,90.165066 338.081307,106.654683 368.004453,136.58771 C397.927555,166.519501 414.411501,206.329447 414.411501,248.662346 C414.411501,290.991725 397.927214,330.800803 368.004479,360.734611 L266.026183,462.745409 C263.358359,465.414114 259.740344,466.913522 255.96689,466.913522 C252.195404,466.913522 248.5775,465.413848 245.909943,462.745409 L143.932818,360.734609 Z" stroke-linejoin="square"></path>
                </g>
            </g>
        </g>
    </g>
</svg>